<?xml version="1.0" encoding="utf-8"?>
<!-- Generator: Adobe Illustrator 25.2.3, SVG Export Plug-In . SVG Version: 6.00 Build 0)  -->
<svg version="1.1" id="Layer_1" xmlns="http://www.w3.org/2000/svg" xmlns:xlink="http://www.w3.org/1999/xlink" x="0px" y="0px"
	 viewBox="0 0 1366 153.8" style="enable-background:new 0 0 1366 153.8;" xml:space="preserve">
<style type="text/css">
	.st0{fill:#FFFFFF;}
	.st1{fill:#EB610A;}
</style>
<g transform="matrix(1,0,0,1,-24.976,-24.137)">
	<g transform="matrix(0.994135,0,0,0.994135,0.146494,0.141573)">
		<g>
			<path class="st0" d="M159.7,178.8c0-80.6,0.2-94.4,0.9-113.5c-6.1,21.9-10.3,35.3-34,113.5H94C71.7,105,66.6,87.9,60.5,65.1
				c0.4,19,0.4,34.4,0.4,113.7H25V24.1h53.2c23.4,72.1,28.1,88.7,32.6,108c4.4-19.3,9-37,31.8-108h53v154.7L159.7,178.8L159.7,178.8
				z"/>
			<path class="st0" d="M238.4,181c-21.3,0-34.4-12.9-34.4-33.5c0-13.4,6.6-23.2,19.7-29.6c11.8-5.5,34.8-8.1,49.3-9v-5.7
				c0-7.6-5-12.3-16-12.3c-10.3,0-14.7,6.4-15.8,15.1l-32-2.2c2-24.7,19.7-39,50.8-39c16.2,0,27,3.5,35.3,10.7
				c7.7,6.6,10.1,15.8,10.1,33.5v36.7c0,15.1,0.4,27.4,2.9,33.1h-32.7c-0.9-4.2-1.8-8.5-1.8-12.7C264.7,176.4,253.7,181,238.4,181z
				 M273,130.4c-13.6,0.9-24.3,2.8-30.2,5.9c-4.6,2.4-6.3,5.7-6.3,9.9s2.6,10.1,13.2,10.1c14.5,0,23.4-9,23.4-21.5v-4.4H273z"/>
			<path class="st0" d="M352.7,68.4v15.3c8.3-10.5,19.7-17.5,34.6-17.5c15.1,0,25.2,5.3,30,18c10.5-11.4,22.6-18,37.5-18
				c12.7,0,22.1,3.7,27.6,12.5c4.1,6.6,5.9,16,5.9,28.9v71.2h-33.7v-60.9c0-7.2-0.7-12.1-2.4-15.6c-2-3.9-5.7-5.9-11.8-5.9
				c-6.8,0-12.3,3.7-15.1,8.3c-3.3,5.3-4.4,10.3-4.4,20.4v53.7h-33.7v-60.9c0-6.8-0.4-11.9-2.2-15.4c-2.2-4.4-6.1-6.1-12-6.1
				c-6.8,0-12.3,3.7-15.1,8.3c-3.3,5.3-4.4,10.3-4.4,20.4v53.7h-34V68.4H352.7z"/>
			<path class="st0" d="M535,68.4v15.3c8.3-10.5,19.7-17.5,34.6-17.5c15.1,0,25.2,5.3,30,18c10.5-11.4,22.6-18,37.5-18
				c12.7,0,22.1,3.7,27.6,12.5c4.2,6.6,5.9,16,5.9,28.9v71.2h-33.8v-60.9c0-7.2-0.6-12.1-2.4-15.6c-2-3.9-5.7-5.9-11.8-5.9
				c-6.8,0-12.2,3.7-15.1,8.3c-3.3,5.3-4.4,10.3-4.4,20.4v53.7h-33.7v-60.9c0-6.8-0.4-11.9-2.2-15.4c-2.2-4.4-6.1-6.1-12-6.1
				c-6.8,0-12.3,3.7-15.1,8.3c-3.3,5.3-4.4,10.3-4.4,20.4v53.7h-33.9V68.4H535z"/>
			<path class="st0" d="M717.3,181c-21.3,0-34.4-12.9-34.4-33.5c0-13.4,6.6-23.2,19.7-29.6c11.8-5.5,34.8-8.1,49.3-9v-5.7
				c0-7.6-5-12.3-16-12.3c-10.3,0-14.7,6.4-15.8,15.1l-32-2.2c2-24.7,19.7-39,50.8-39c16.2,0,27,3.5,35.3,10.7
				c7.7,6.6,10.1,15.8,10.1,33.5v36.7c0,15.1,0.4,27.4,2.8,33.1h-32.6c-0.9-4.2-1.7-8.5-1.7-12.7C743.6,176.4,732.6,181,717.3,181z
				 M751.9,130.4c-13.6,0.9-24.3,2.8-30.3,5.9c-4.6,2.4-6.3,5.7-6.3,9.9s2.6,10.1,13.1,10.1c14.5,0,23.5-9,23.5-21.5V130.4z"/>
			<path class="st1" d="M836.8,178.8V24.1h85.1v8.3h-76.1v59.1h67.1v8.5h-67.1v78.6h-9V178.8z"/>
			<path class="st1" d="M935.2,50.8V34.6h9v16.2H935.2z M935.4,178.8v-106h8.6v106H935.4L935.4,178.8z"/>
			<path class="st1" d="M1010.1,178.6c-4.2,1.1-8.3,1.7-11.4,1.7c-14.9,0-20.6-6.1-20.6-24.9V80.7h-20.8v-7.9h20.8V33.4h8.5v39.4
				h23.2v7.9h-23.2v75.8c0,12.9,4.8,16,12.9,16c3.3,0,6.3-0.4,10.5-2.2L1010.1,178.6L1010.1,178.6z"/>
			<path class="st1" d="M1099.3,178.8v-65.7c0-13.6-1.5-20.8-6.1-26.5c-4.6-5.5-11-7.2-19.9-7.2c-8.6,0-19.3,3.7-26.3,12.9
				c-7.7,10.3-9,20.6-9,30.9v55.6h-8.6v-106h8.6v21c7.7-15.1,21.5-22.6,36.6-22.6c11.2,0,19.7,2.8,25.8,10.3
				c5,6.1,7.4,14.3,7.4,29.2v68.1H1099.3L1099.3,178.8z"/>
			<path class="st1" d="M1218.7,151.2c-4.8,18-18.6,30-40.8,30c-32.2,0-49.5-21.3-49.5-57c0-33.5,18.2-53.7,47.3-53.7
				c27.8,0,42.5,18,43.4,54.6h-81.7c0,35.5,18.9,48.2,40.7,48.2c17.5,0,28.4-8.8,32.4-25L1218.7,151.2z M1175.1,78
				c-21.5,0-35.3,13.8-37.5,39.2h71.9C1208.4,95.6,1198.6,78,1175.1,78z"/>
			<path class="st1" d="M1238.2,147.7c4.2,14.4,14.7,25.6,33.1,25.6c16.4,0,28-7.7,28-21.7c0-11.6-6.8-16.7-25.2-22.3l-12.1-3.7
				c-18.8-5.9-26.9-15.1-26.9-28.3c0-16,14.7-26.7,35.3-26.7c18.4,0,30.2,9.6,35.5,26.5l-8.1,3.3c-4.2-14.9-14.2-22.1-28.4-22.1
				c-15.4,0-25.4,7.2-25.4,18.8c0,9.6,5.5,15.8,21.7,20.4l10.8,3.1c22.8,6.6,31.8,14.7,31.8,30.7c0,18.4-14.5,30-37.7,30
				c-20.8,0-34.4-11.9-40.3-30.3L1238.2,147.7z"/>
			<path class="st1" d="M1329.2,147.7c4.2,14.4,14.7,25.6,33.1,25.6c16.4,0,28-7.7,28-21.7c0-11.6-6.8-16.7-25.2-22.3l-12-3.7
				c-18.8-5.9-27-15.1-27-28.3c0-16,14.7-26.7,35.3-26.7c18.4,0,30.2,9.6,35.5,26.5l-8.1,3.3c-4.2-14.9-14.2-22.1-28.5-22.1
				c-15.3,0-25.4,7.2-25.4,18.8c0,9.6,5.5,15.8,21.7,20.4l10.8,3.1c22.8,6.6,31.8,14.7,31.8,30.7c0,18.4-14.5,30-37.7,30
				c-20.8,0-34.4-11.9-40.3-30.3L1329.2,147.7z"/>
		</g>
		<path class="st0" d="M826.5,164.3c0,8-6.5,14.5-14.5,14.5s-14.5-6.5-14.5-14.5s6.5-14.5,14.5-14.5S826.5,156.3,826.5,164.3z"/>
	</g>
</g>
</svg>
