<?xml version="1.0" encoding="utf-8"?>
<!-- Generator: Adobe Illustrator 25.3.1, SVG Export Plug-In . SVG Version: 6.00 Build 0)  -->
<svg version="1.1" id="Lager_1" xmlns="http://www.w3.org/2000/svg" xmlns:xlink="http://www.w3.org/1999/xlink" x="0px" y="0px"
	 viewBox="0 0 50 50" style="enable-background:new 0 0 50 50;" xml:space="preserve">
<style type="text/css">
	.st0{fill:#EB610A;}
	.st1{fill:#FFFFFF;}
</style>
<g>
	<circle class="st0" cx="25" cy="25" r="24.7"/>
	<g>
		<path class="st1" d="M34.4,32.7c0.5-0.3,0.7-0.4,0.9-0.7c0.1-0.2,0.2-0.6-0.1-1.6c-0.2-0.8-0.4-0.9-0.6-1.6
			c-0.4-1-0.7-2.3-0.8-2.7c-0.1-0.3-0.2-0.7-0.5-1.1c-0.1-0.1-0.4-0.4-0.9-0.5c-0.6-0.1-0.8,0.3-1.9,0.7c-1.4,0.6-1.9,0.4-2.1,0.3
			c-0.2-0.1-0.3-0.2-0.4-0.3L28,25.2l-0.1-0.1c0,0-0.1-0.1-0.1-0.1c-0.3-0.2-0.7-0.3-1.2-0.3c-1.4,0.3-2,2.6-2.3,4
			c-0.4,1.4-0.7,3.6-0.3,6.5c0.1,0,0.2-0.1,0.3-0.1c0.4-0.3,0.3-0.9,0.2-1.4c-0.1-0.7,0-1.3-0.1-2c-0.3-2,0.7-5.9,2.3-6.2
			c0.7-0.1,0.9,0.6,2.1,0.5c0.6,0,1-0.2,1.9-0.2c0.5,0,0.7,0,0.8,0.1c0.5,0.4,0.2,1.6-0.2,3.7c-0.7,3.5-0.6,4.4-0.3,5
			c0.4,0.9,1.2,1.6,1.3,1.5c0.1,0-0.1-0.5-0.4-1.4c0,0-0.1-0.4-0.2-1c-0.1-1.2,0.1-1.6,0.3-3.6c0-0.5,0-0.8,0.1-1.3
			c0.1-0.6,0.2-1.6,0.4-1.6c0.2,0,0.2,0.7,0.7,2c0.4,0.9,0.7,1.1,0.6,1.6c0,0.1-0.1,0.4-0.9,1.2c-1.1,1-2,1.5-1.9,1.8
			c0,0.1,0.3,0.2,0.5,0.3c0,0,0.1,0,0.1,0C32.1,34.5,33.5,33.3,34.4,32.7z"/>
		<path class="st1" d="M28.5,23.8c0.8,0.5,1.5,0.3,1.6,0.3c0,0,0,0,0,0c0.1,0.1,0.3,0.3,0.4,0.3c0.1,0,0.1,0,0.1,0
			c0,0,0.3,0,0.7-0.2c0.4-0.1,1-0.5,1.4-1.1c0.4-0.6,0.5-1.4,0.5-2.2c0-0.2,0-0.4,0-0.6c0-0.2,0-0.5,0-0.7c-0.1-0.5-0.3-0.9-0.6-1.3
			c-0.6-0.8-1.5-1.2-2.4-1.2c-0.9,0-1.7,0.4-2.2,0.9c-0.5,0.5-0.7,1.1-0.8,1.5c0,0.2-0.1,0.4-0.1,0.5c0,0.1,0,0.2,0,0.2s0,0.2,0,0.6
			c0,0.4,0,0.9,0.2,1.4c0.1,0.5,0.4,1,0.7,1.3C28.3,23.7,28.5,23.8,28.5,23.8z M28.2,22.5c-0.1-0.3-0.2-0.7-0.2-1c0-0.3,0-0.6,0-0.8
			c0-0.2,0-0.3,0-0.3s0-0.1,0-0.1c0-0.1,0-0.2,0-0.3c0-0.3,0.2-0.7,0.5-1.1c0.3-0.4,0.9-0.7,1.5-0.7c0.6,0,1.3,0.3,1.7,0.8
			c0.2,0.3,0.4,0.6,0.4,0.9c0,0.2,0,0.3,0,0.5c0,0.2,0,0.4,0,0.6c0,0.7-0.1,1.4-0.4,1.8c-0.3,0.4-0.6,0.7-0.9,0.8
			c-0.3,0.1-0.5,0.1-0.5,0.1c0,0-0.1,0-0.1,0c-0.2,0.2-0.3,0.3-0.4,0.4c0,0-0.1,0-0.2-0.1c-0.2-0.1-0.6-0.2-1.1-0.5
			C28.6,23.2,28.4,22.9,28.2,22.5z"/>
		<path class="st1" d="M26.1,25.5c-1.1-2.8-1.9-3.4-2.5-3.3c-0.7,0-1,0.8-2.1,0.9c-0.3,0-0.7,0-1.4-0.2c-0.6-0.2-1-0.3-1.3-0.3
			c-1.5-0.1-2.6,1.6-2.8,1.8c-0.4,0.5-0.5,1-0.7,1.3c-0.2,0.5-0.3,1-0.5,3.1c-0.1,1.2-0.1,1.9-0.1,2.2c0.1,0.5,0.2,1.5,0.8,2.4
			c0.6,0.9,1.5,1.7,1.7,1.5c0.2-0.2-0.7-1.4-1.1-3.1c-0.4-1.5-0.5-3.3,0.1-5.6c0-0.3,0.1-0.8,0.4-1.3c0.6-1,1.7-1.3,2-1.4
			c0.2-0.1,0.5-0.1,0.8-0.1c1,0,1.4,0.5,2.1,0.6c1,0,1.2-1,1.9-0.9c0.8,0.1,1.6,1.4,2,3C25.5,25.8,25.8,25.6,26.1,25.5z"/>
		<path class="st1" d="M18.8,21.3c0.8,0.5,1.5,0.3,1.6,0.3c0,0,0,0,0,0c0.1,0.1,0.3,0.3,0.4,0.3c0.1,0,0.1,0,0.1,0
			c0,0,0.3,0,0.7-0.2c0.4-0.1,1-0.5,1.4-1.1c0.4-0.6,0.5-1.4,0.5-2.2c0-0.2,0-0.4,0-0.6c0-0.2,0-0.5,0-0.7c-0.1-0.5-0.3-0.9-0.6-1.3
			c-0.6-0.8-1.5-1.2-2.4-1.2c-0.9,0-1.7,0.4-2.2,0.9c-0.5,0.5-0.7,1.1-0.8,1.5c0,0.2-0.1,0.4-0.1,0.5c0,0.1,0,0.2,0,0.2s0,0.2,0,0.6
			c0,0.4,0,0.9,0.2,1.4c0.1,0.5,0.4,1,0.7,1.3C18.6,21.3,18.8,21.4,18.8,21.3z M18.5,20.1c-0.1-0.3-0.2-0.7-0.2-1c0-0.3,0-0.6,0-0.8
			c0-0.2,0-0.3,0-0.3s0-0.1,0-0.1c0-0.1,0-0.2,0-0.3c0-0.3,0.2-0.7,0.5-1.1c0.3-0.4,0.9-0.7,1.5-0.7c0.6,0,1.3,0.3,1.7,0.8
			c0.2,0.3,0.4,0.6,0.4,0.9c0,0.2,0,0.3,0,0.5c0,0.2,0,0.4,0,0.6c0,0.7-0.1,1.4-0.4,1.8c-0.3,0.4-0.6,0.7-0.9,0.8
			c-0.3,0.1-0.5,0.1-0.5,0.1c0,0-0.1,0-0.1,0c-0.2,0.2-0.3,0.3-0.4,0.4c0,0-0.1,0-0.2-0.1c-0.2-0.1-0.6-0.2-1.1-0.5
			C18.8,20.7,18.6,20.4,18.5,20.1z"/>
	</g>
</g>
</svg>
