<?xml version="1.0" encoding="utf-8"?>
<!-- Generator: Adobe Illustrator 25.3.1, SVG Export Plug-In . SVG Version: 6.00 Build 0)  -->
<svg version="1.1" id="Lager_1" xmlns="http://www.w3.org/2000/svg" xmlns:xlink="http://www.w3.org/1999/xlink" x="0px" y="0px"
	 viewBox="0 0 50 50" style="enable-background:new 0 0 50 50;" xml:space="preserve">
<style type="text/css">
	.st0{fill:#EB610A;}
	.st1{fill:#FFFFFF;}
</style>
<g>
	<circle class="st0" cx="25" cy="25" r="24.6"/>
	<path class="st1" d="M35.5,20.8c-0.1-0.6-0.2-1.2-0.5-1.7c-0.4-1-1-1.7-1.5-2.1c-0.5-0.4-0.8-0.6-0.8-0.6s-0.4-0.2-1-0.5
		c-0.6-0.2-1.5-0.4-2.3-0.3c-0.9,0-1.7,0.3-2.2,0.6c-0.5,0.3-0.8,0.6-0.8,0.5c-0.7,0.6-1.2,1.3-1.4,1.7c0-0.1,0-0.2-0.1-0.3
		C25,18,25,18,25,18c0,0-0.2-0.4-0.7-0.8c-0.5-0.5-1.2-1.1-2.3-1.4c-1.1-0.3-2.4-0.3-3.7,0.1c-1.3,0.5-2.5,1.5-3.1,2.8
		c-0.6,1.3-0.8,2.8-0.6,4.1c0.2,1.3,0.9,2.5,1.6,3.3c1.4,1.4,2.4,2.4,2.4,2.4s4.7,4.5,4.5,4.3c1.1,1,2,1.8,2,1.7
		c0.1,0.1,0.5,0,0.8-0.2c0.1,0,0.1-0.1,0.1-0.1c0.1-0.1,3.9-3.9,7.7-7.8c1-1,1.7-2.4,1.9-3.7C35.7,22,35.6,21.4,35.5,20.8z
		 M34.6,22.4c-0.1,1.2-0.7,2.4-1.6,3.3c-3.9,3.9-7.7,7.8-7.8,7.9c0,0-0.1,0.1-0.1,0.2c-0.2,0.3-0.2,0.5-0.2,0.7
		c-0.2-0.2-0.6-0.8-1.6-1.8c-1.6-1.9-4.1-4.4-4.1-4.4s-1-1-2.4-2.4c-0.7-0.7-1.3-1.6-1.5-2.8c-0.2-1.1-0.1-2.5,0.4-3.6
		c0.5-1.1,1.5-2,2.6-2.4c0.5-0.2,1.1-0.3,1.7-0.3c0.5,0,1,0,1.5,0.2c0.9,0.3,1.5,0.8,1.9,1.2c0.4,0.4,0.6,0.7,0.6,0.7
		c0,0,0.1,0.1,0.1,0.1c0.5,0.4,0.7,0.4,0.8,0.2c0,0,0,0,0-0.1c0,0,0.1-0.1,0.1-0.2c0.2-0.3,0.7-0.9,1.5-1.4c0.5-0.3,1.1-0.6,1.7-0.7
		c0.6-0.1,1.3-0.1,1.8-0.1c0.5,0.1,1,0.2,1.3,0.4c0.2,0.1,0.3,0.1,0.4,0.2c0.1,0,0.1,0.1,0.1,0.1s0.3,0.1,0.7,0.5
		c0.4,0.3,1,0.9,1.4,1.7c0.2,0.4,0.3,0.9,0.5,1.4C34.7,21.2,34.7,21.8,34.6,22.4z M28.9,24.1l-0.1,0l-0.1,0.1
		c-0.3,0.6-0.7,1.2-1,1.7c-0.3-0.8-0.5-1.4-0.5-1.4l-1.1-2.9l-0.4-1l-0.4,1l-1.4,4l-1.6-4L22,20.8l-0.4,0.9L20.7,24L19,24
		c0,0-0.1,0-0.2,0c-1,0.3-0.4,0.6,0,0.7c0.1,0,0.1,0,0.1,0h2h0.3l0.1-0.2l0.7-1.7l1.6,4l0.4,0.9l0.3-0.9l1.4-3.9l0.6,1.7
		c0,0,0.4,1.1,0.9,2.2l0.3,0.7l0.3-0.6c0.5-0.9,0.9-1.9,1.2-2.3c2.1-0.1,3.5-0.3,0-0.4C29,24.2,28.9,24.1,28.9,24.1z"/>
</g>
</svg>
