<?xml version="1.0" encoding="utf-8"?>
<!-- Generator: Adobe Illustrator 25.3.1, SVG Export Plug-In . SVG Version: 6.00 Build 0)  -->
<svg version="1.1" id="Lager_1" xmlns="http://www.w3.org/2000/svg" xmlns:xlink="http://www.w3.org/1999/xlink" x="0px" y="0px"
	 viewBox="0 0 50 50" style="enable-background:new 0 0 50 50;" xml:space="preserve">
<style type="text/css">
	.st0{fill:#EB610A;}
	.st1{fill:#FFFFFF;}
</style>
<g>
	<circle class="st0" cx="25" cy="25" r="24.8"/>
	<path class="st1" d="M34,29.6c0.1-0.2,0.3-0.4,0.3-0.7c0-0.3,0-0.7-0.2-1.1c-0.2-0.4-0.6-0.6-1-0.7c-0.4-0.1-0.9,0-1.2,0.2
		c-0.3,0.2-0.5,0.5-0.6,0.7c0,0-0.1,0-0.1,0c-1.6-0.5-4-1.2-4-1.2l-0.3-0.1c0-0.3-0.1-0.6-0.2-0.9c-0.2-0.3-0.4-0.5-0.7-0.6l0.7-2.7
		c0.3-0.1,0.5-0.3,0.5-0.4c0-0.1-0.2,0-0.6-0.1c-0.3,0-0.5-0.2-0.6-0.4c-0.1-0.2-0.2-0.3-0.2-0.3s0,0,0-0.1c0-0.1,0-0.2,0-0.4
		c0.1-0.3,0.5-0.7,0.9-0.6c0.4,0.1,0.7,0.5,0.6,0.9c0,0.2-0.1,0.3-0.1,0.4c-0.1,0.1-0.1,0.1-0.1,0.1c0,0,0,0,0,0
		c0,0.2,0.1,0.4,0.2,0.5c0.1,0.1,0.2,0.1,0.3,0.1c0,0,0,0,0.1,0c0,0,0.1-0.1,0.2-0.2c0.1-0.2,0.3-0.4,0.3-0.7c0-0.3,0-0.7-0.2-1.1
		c-0.2-0.4-0.6-0.6-1-0.7c-0.4-0.1-0.9,0-1.2,0.2c-0.2,0.1-0.4,0.3-0.5,0.5l-4.4-1.1c0-0.3-0.1-0.6-0.2-0.9c-0.2-0.4-0.6-0.6-1-0.7
		c-0.4-0.1-0.9,0-1.2,0.2c-0.3,0.2-0.6,0.6-0.7,0.9c-0.1,0.3-0.1,0.6,0,0.8c0,0.2,0.1,0.3,0.1,0.3s0.1,0.1,0.2,0.3
		c0.1,0.2,0.3,0.3,0.5,0.5c0.5,0.3,0.9,0.2,0.9,0.1c0.4-0.1,0.6-0.3,0.6-0.4c0-0.1-0.2,0-0.6-0.1c-0.3,0-0.5-0.2-0.6-0.4
		c-0.1-0.2-0.2-0.3-0.2-0.3s0,0,0-0.1c0-0.1,0-0.2,0-0.4c0.1-0.3,0.5-0.7,0.9-0.6c0.4,0.1,0.7,0.5,0.6,0.9c0,0.2-0.1,0.3-0.1,0.4
		c-0.1,0.1-0.1,0.1-0.1,0.1c0,0,0,0,0,0c0,0.2,0.1,0.4,0.2,0.5c0.1,0.1,0.2,0.1,0.3,0.1c0,0,0,0,0.1,0c0,0,0.1-0.1,0.2-0.2
		c0,0,0.1-0.1,0.1-0.2l4.4,1.1c0,0.1,0,0.3,0,0.4c0,0.2,0.1,0.3,0.1,0.3s0.1,0.1,0.2,0.3c0.1,0.2,0.3,0.3,0.5,0.5c0,0,0.1,0,0.1,0
		L25,25c-0.3,0-0.5,0.1-0.7,0.2c-0.3,0.2-0.6,0.6-0.7,0.9c-0.1,0.3-0.1,0.6,0,0.8c0,0.2,0.1,0.3,0.1,0.3s0.1,0.1,0.2,0.3
		c0.1,0.2,0.3,0.3,0.5,0.5c0.5,0.3,0.9,0.2,0.9,0.1c0.4-0.1,0.6-0.3,0.6-0.4c0-0.1-0.2,0-0.6-0.1c-0.3,0-0.5-0.2-0.6-0.4
		c-0.1-0.2-0.2-0.3-0.2-0.3s0,0,0-0.1c0-0.1,0-0.2,0-0.4c0.1-0.3,0.5-0.7,0.9-0.6c0.4,0.1,0.7,0.5,0.6,0.9c0,0.2-0.1,0.3-0.1,0.4
		c-0.1,0.1-0.1,0.1-0.1,0.1c0,0,0,0,0,0c0,0.2,0.1,0.4,0.2,0.5c0.1,0.1,0.2,0.1,0.3,0.1c0,0,0,0,0.1,0c0,0,0.1-0.1,0.2-0.2
		c0,0,0.1-0.1,0.1-0.1l0.1,0c0,0,4.4,1,4.2,0.9c0.1,0,0.1,0,0.2,0c0,0.2,0,0.4,0,0.5c0,0.2,0.1,0.3,0.1,0.3s0.1,0.1,0.2,0.3
		c0.1,0.2,0.3,0.3,0.5,0.5c0.5,0.3,0.9,0.2,0.9,0.1c0.4-0.1,0.6-0.3,0.6-0.4c0-0.1-0.2,0-0.6-0.1c-0.3,0-0.5-0.2-0.6-0.4
		C32,29.1,32,28.9,32,28.9s0,0,0-0.1c0-0.1,0-0.2,0-0.4c0.1-0.3,0.5-0.7,0.9-0.6c0.4,0.1,0.7,0.5,0.6,0.9c0,0.2-0.1,0.3-0.1,0.4
		c-0.1,0.1-0.1,0.1-0.1,0.1c0,0,0,0,0,0c0,0.2,0.1,0.4,0.2,0.5c0.1,0.1,0.2,0.1,0.3,0.1c0,0,0,0,0.1,0C33.8,29.8,33.9,29.7,34,29.6z
		"/>
	<path class="st1" d="M34.1,32.3c-0.1,0-0.1,0-0.2,0h-19v-6.9c0,0-0.2-8.1-0.2-7.7c-0.1-3.2-0.3-5.3-0.5-0.1C14.1,20.7,14,25,14,25
		l0,7.7c0,0.3,0.2,0.5,0.5,0.5l19.5,0c0.1,0,0.2,0,0.2,0C35.7,32.8,34.8,32.4,34.1,32.3z"/>
</g>
</svg>
