<?xml version="1.0" encoding="utf-8"?>
<!-- Generator: Adobe Illustrator 25.3.1, SVG Export Plug-In . SVG Version: 6.00 Build 0)  -->
<svg version="1.1" id="Lager_1" xmlns="http://www.w3.org/2000/svg" xmlns:xlink="http://www.w3.org/1999/xlink" x="0px" y="0px"
	 viewBox="0 0 50 50" style="enable-background:new 0 0 50 50;" xml:space="preserve">
<style type="text/css">
	.st0{fill:#EB610A;}
	.st1{fill:#FFFFFF;}
</style>
<g>
	<circle class="st0" cx="25" cy="25" r="24.7"/>
	<path class="st1" d="M20.7,14.8C20.8,14.8,20.8,14.8,20.7,14.8c0.1,0.1,0.1,0.1,0.1,0.1c0,0,0,0,0,0c0.1,0,0.1,0,0.2,0
		c0,0,0.1-0.1,0.1-0.1c0,0,0,0,0,0c0,0,0,0-0.1-0.1c0-0.1-0.1-0.1-0.2-0.2c-0.1,0-0.2-0.1-0.4,0c-0.1,0-0.2,0.1-0.3,0.2
		c-0.1,0.1-0.1,0.3,0,0.4c0,0.1,0.1,0.2,0.2,0.3c0,0,0,0,0,0c0.1,0,0.1,0.1,0.2,0.1c0,0,0.1,0,0.1,0c0.1,0,0.1,0,0.1,0s0,0,0.1,0
		c0.1,0,0.1-0.1,0.2-0.1c0.1-0.1,0.1-0.3,0.1-0.3c0-0.1,0-0.2-0.1-0.2c0,0,0,0.1-0.1,0.2c0,0.1-0.1,0.1-0.2,0.2c-0.1,0-0.1,0-0.1,0
		s0,0,0,0c0,0-0.1,0-0.1,0c-0.1,0-0.2-0.2-0.1-0.3C20.4,14.8,20.6,14.7,20.7,14.8z"/>
	<path class="st1" d="M18.2,32.5c0.2,0.4,0.3,0.6,0.5,0.6c0,0.1,0,0.2,0,0.5c0,0.2,0.1,0.6,0.3,1c0.2,0.4,0.6,0.8,1.2,1.1
		c0.2,0.1,0.4,0.1,0.6,0.1c0.2,0,0.4,0,0.5,0c0.4,0,0.7,0,1.1,0.1c0.3,0,0.6,0,0.9,0c1.4,0,2.9,0.1,4.3,0.1c0.1,0,0.1,0,0.2,0
		c0.3,0,0.7,0,1.2,0c0.2,0,0.5,0,0.8-0.1c0.3-0.1,0.6-0.2,0.9-0.4c0.6-0.4,1-1.2,1.1-2.1c0-0.5,0-0.8,0-1.2c0-0.4,0-0.7,0-1.1
		c0-1.5,0-3.2,0-4.8c0-3.3,0-6.6,0-9.1c0-0.6,0-1.2,0-1.7c0-0.6-0.2-1.2-0.5-1.6c-0.5-0.8-1-0.9-1.1-1C30.2,13.1,30,13,30,13
		c-0.4,0-0.7,0.1-0.8,0.2c-0.1,0.1-0.1,0.1-0.1,0.2c-0.2-0.1-0.8-0.2-2.2-0.3c-2.2-0.2-5.2-0.3-5.2-0.3s-0.3,0-0.8,0
		c-0.6,0-1.6,0.2-2.3,1.3c-0.2,0.3-0.3,0.6-0.4,0.9c0,0.2-0.1,0.3-0.1,0.5c0,0.2,0,0.4,0,0.5c0,0.6,0,1.2,0,1.8c0,1.2,0,2.6,0,3.9
		c0,5.3,0,10.6,0,10.8C18.2,32.4,18.2,32.5,18.2,32.5z M19.3,32.5c0-0.1,0-0.1,0-0.1V16.2c0-0.1,0-0.3,0-0.4c0-0.1,0-0.2,0-0.3
		c0-0.2,0.1-0.4,0.2-0.5c0.3-0.6,0.9-0.9,1.3-0.9c0.5,0,0.8,0,0.8,0s5.7-0.2,5.4-0.2c1.1-0.1,2-0.2,2.2-0.3c0,0,0,0,0,0
		c0.1,0.2,0.4,0.4,0.5,0.5c0,0.1,0.1,0.1,0.1,0.1c0,0,0.3,0.1,0.6,0.6c0.1,0.2,0.3,0.5,0.3,0.9c0,0.5,0,1,0,1.6V31
		c0,0.8,0,1.5,0,2.2c0,0.5-0.2,1-0.5,1.3c-0.3,0.3-0.7,0.4-1,0.4c-0.4,0-0.8,0-1.1,0c-0.6,0-1,0-1,0s-1.7,0.1-3.5,0.1
		c-0.9,0-1.7,0.1-2.3,0.1c-0.2,0-0.3,0-0.4,0c-0.1,0-0.2,0-0.3,0c-0.1,0-0.2,0-0.2,0c-0.6-0.1-1-0.6-1.3-1c-0.2-0.4-0.3-0.8-0.3-0.9
		C19,33.1,19.2,32.8,19.3,32.5z"/>
</g>
<g>
	<path class="st1" d="M19.9,16.2c0.1,0,7.4,0,7.4,0s2.2-0.1,2.1-0.1c0.9,0,1.5-0.1,0-0.2c-0.8-0.1-2-0.1-2-0.1s-7.4,0-7.5,0
		c0,0-0.1,0-0.1,0C19.5,16,19.7,16.2,19.9,16.2C19.9,16.2,19.9,16.2,19.9,16.2z M19.9,33c0.1,0,7.4,0,7.4,0s2.2-0.1,2.1-0.1
		c0.9,0,1.5-0.1,0-0.2c-0.8-0.1-2-0.1-2-0.1s-7.4,0-7.5,0c0,0-0.1,0-0.1,0C19.5,32.8,19.7,32.9,19.9,33C19.9,33,19.9,33,19.9,33z"/>
</g>
<path class="st1" d="M23,24c0.6,0.8,1.2,1.4,1.3,1.5c0.2,0.2,0.5,0.4,0.7,0.7c0.1-0.1,0.1-0.2,0.2-0.3c0.5-0.7,0.9-1.4,1.4-2.1
	c0.5-0.6,0.8-1.1,0.9-1.5c0-0.1,0.3-0.9,0.1-1c-0.1-0.1-0.5,0.3-0.7,0.6c-0.2,0.3-0.4,0.7-0.7,1c-0.1,0.2-0.2,0.3-0.4,0.5
	c-0.3,0.5-0.7,1-1,1.5c-0.5-0.5-1.1-1-1.6-1.5c-0.1,0-0.4,0-0.4,0.2C22.7,23.6,22.9,23.8,23,24z"/>
</svg>
