<?xml version="1.0" encoding="utf-8"?>
<!-- Generator: Adobe Illustrator 25.3.1, SVG Export Plug-In . SVG Version: 6.00 Build 0)  -->
<svg version="1.1" id="Lager_1" xmlns="http://www.w3.org/2000/svg" xmlns:xlink="http://www.w3.org/1999/xlink" x="0px" y="0px"
	 viewBox="0 0 50 50" style="enable-background:new 0 0 50 50;" xml:space="preserve">
<style type="text/css">
	.st0{fill:#EB610A;}
	.st1{fill:#FFFFFF;}
</style>
<g>
	<circle class="st0" cx="25" cy="25" r="24.5"/>
	<path class="st1" d="M36.6,27.9L36.6,27.9c-0.7-0.3-1.4-0.7-2.1-1c0.3-0.9,0.6-1.5,0.5-1.4c0.1-0.4,0.3-0.6,0.4-1
		c0.1-0.4,0-0.7-0.1-1c-0.3-0.5-0.7-0.7-0.8-0.7c0-0.1-0.2-0.4-0.4-0.5c0.1-0.4,0-0.9-0.3-1.2c-0.2-0.2-0.4-0.4-0.6-0.6
		c-0.1-0.1-0.2-0.1-0.3-0.1l-0.3-0.1c-0.5-0.2-1.1-0.2-1.6,0.1c-0.2,0.1-0.5,0.3-0.6,0.6c-0.2,0.3-0.2,0.4-0.3,0.6l-1.2,2.9
		c-1.8-0.8-4-1.7-6.2-2.6c0.6-1.4,1-2.6,1-2.5c0.1-0.4,0.3-0.6,0.4-1c0.1-0.4,0-0.7-0.1-1c-0.3-0.5-0.7-0.7-0.8-0.7
		c0-0.2-0.3-0.4-0.6-0.6c-0.1,0-0.1-0.1-0.2-0.1c-0.6-0.1-1.3,0.2-1.6,0.7c0,0,0,0-0.1,0l-0.4-0.2c-0.3-0.2-0.8-0.2-1.2-0.1
		c-0.4,0.1-0.7,0.3-1,0.7c-0.1,0.2-0.2,0.4-0.2,0.5l-0.2,0.4l-0.6,1.5c-0.8-0.3-1.3-0.5-1.3-0.6c0,0-0.1,0-0.2,0
		c-0.5,0-0.7,0.1-0.7,0.2c-0.1,0.2-0.4,0.7-1,1.8c-0.1,0.3-0.3,0.6-0.4,0.9l0,0c-0.1,0.1,0,0.3,0.1,0.3l0,0c0.7,0.3,1.3,0.6,1.9,0.9
		l-0.7,1.6l-0.2,0.4c-0.1,0.1-0.1,0.3-0.2,0.5c-0.1,0.4,0,0.8,0.2,1.2c0.2,0.3,0.6,0.6,0.9,0.8l0.4,0.2c0,0,0.1,0,0.1,0
		c0,0.3,0,0.6,0.1,0.8c0.2,0.4,0.5,0.8,0.9,1l0.5,0.2c0.1,0.1,0.4,0.2,0.6,0.2c0.4,0.1,0.9-0.1,1.3-0.3c0.2-0.1,0.3-0.3,0.4-0.5
		c0.1-0.2,0.2-0.4,0.2-0.5l0.4-0.9l0.8-1.8c0,0,0-0.1,0.1-0.3c1.8,0.8,4,1.7,6.1,2.6L26.1,31c-0.1,0.2-0.2,0.4-0.3,0.7
		c-0.1,0.3-0.1,0.6,0,0.8c0.1,0.6,0.6,1,1.1,1.2l0.3,0.1c0.1,0,0.2,0.1,0.3,0.1c0.3,0.1,0.6,0.1,0.8,0c0.4-0.1,0.8-0.3,1-0.6
		c0,0,0.1,0,0.1,0l0.4,0.2c0.3,0.2,0.8,0.2,1.2,0.1c0.4-0.1,0.7-0.4,1-0.7c0.1-0.1,0.1-0.2,0.1-0.3l0.1-0.2l0.2-0.4
		c0,0,0.2-0.6,0.6-1.5c0.8,0.3,1.3,0.6,1.4,0.6c0,0,0.1,0,0.2,0c0.5,0,0.7-0.1,0.7-0.2c0.1-0.2,0.4-0.7,1-1.8
		c0.1-0.3,0.3-0.6,0.4-0.9l0,0C36.7,28.1,36.7,28,36.6,27.9z M14,21.7c0.1-0.4,0.2-0.6,0.2-0.5c0.3-0.8,0.5-1.5,0.6-1.9
		c0.1,0.1,0.2,0.3,0.3,0.4c0,0,0.1,0.1,0.1,0.1l1.3,0.6l-0.4,1l-0.5,1.1C15.1,22.1,14.5,21.9,14,21.7z M23.2,19.1
		c-1.2,2.5-2.8,6.1-2.8,6.1l-0.8,1.9l-0.4,1L19,28.5c0,0.1-0.1,0.2-0.2,0.3c-0.2,0.2-0.4,0.2-0.6,0.2c-0.1,0-0.2,0-0.4-0.1l-0.5-0.2
		c-0.5-0.2-0.7-0.7-0.5-1.1l0,0c0,0,0-0.1,0-0.1c0-0.2-0.1-0.4-0.3-0.5c-0.1,0-0.2-0.1-0.4-0.1l-0.4-0.2c-0.2-0.1-0.4-0.2-0.5-0.4
		c-0.1-0.2-0.1-0.4-0.1-0.6c0-0.2,0.2-0.5,0.3-0.8l1.4-3.4l1.4-3.4c0.1-0.3,0.2-0.6,0.3-0.7c0.1-0.2,0.3-0.3,0.5-0.3
		c0.2,0,0.4,0,0.6,0.1l0.4,0.2c0,0,0.1,0,0.1,0c-0.4,1-2.7,6.4-2.7,6.4s-0.7,2-0.7,1.9c-0.2,0.8-0.3,1.4,0.4,0.2
		c0.4-0.7,0.9-1.7,0.9-1.7s2.8-6.6,2.8-6.7c0,0,0,0,0-0.1c0,0,0.1-0.1,0.1-0.1l0,0c0.1-0.4,0.5-0.6,0.9-0.5c0,0,0.1,0,0.1,0
		c0.5,0.1,0.7,0,0.8-0.1c0.1,0,0.2,0.1,0.3,0.3c0.1,0.2,0.3,0.4,0.3,0.8c0,0.2,0,0.4-0.1,0.6C23.5,18.6,23.3,18.8,23.2,19.1z
		 M21.5,24.7c0.2-0.6,0.5-1.3,0.8-2.1l6.1,2.6l-0.4,1l-0.4,1L21.5,24.7z M34.6,25.3c-1.2,2.5-2.8,6.1-2.8,6.1l-0.4,0.9
		c-0.1,0.2-0.3,0.4-0.5,0.5c-0.2,0.1-0.4,0.1-0.7,0l-0.5-0.2c-0.1-0.1-0.3-0.1-0.4-0.2c0,0-0.1,0-0.1,0c-0.2-0.1-0.4,0-0.5,0.2l0,0
		c-0.1,0.3-0.3,0.5-0.6,0.5c-0.1,0-0.3,0-0.4,0c-0.1,0-0.2-0.1-0.3-0.1l-0.3-0.1c-0.3-0.1-0.5-0.3-0.6-0.6c-0.1-0.3,0-0.5,0.2-1
		l2-4.7l2-4.7c0.2-0.4,0.3-0.7,0.5-0.8c0.3-0.1,0.5-0.2,0.8,0l0.3,0.1c0.1,0,0.2,0.1,0.3,0.1c0.1,0.1,0.2,0.2,0.3,0.3
		c0.2,0.2,0.2,0.5,0.1,0.8c0,0,0,0,0,0c0,0.1,0,0.1,0,0.2c0,0,0,0,0,0c0,0.1-2.8,6.6-2.8,6.6s-0.7,2-0.7,1.9
		c-0.2,0.8-0.3,1.4,0.4,0.2c0.4-0.7,0.9-1.7,0.9-1.7s2.4-5.7,2.8-6.6c0.5,0.1,0.7,0,0.7-0.1c0.1,0,0.2,0.1,0.3,0.3
		c0.1,0.2,0.3,0.4,0.3,0.8c0,0.2,0,0.4-0.1,0.6C34.8,24.8,34.7,25,34.6,25.3z M34.9,30.4c0,0-0.1-0.1-0.1-0.1l-1.4-0.6
		c0.3-0.7,0.6-1.5,0.8-2.1c0.6,0.2,1.3,0.5,1.8,0.7c-0.1,0.4-0.2,0.6-0.2,0.5c-0.3,0.8-0.5,1.5-0.6,1.9C35.1,30.6,35,30.5,34.9,30.4
		z"/>
</g>
</svg>
